<?xml version="1.0" encoding="UTF-8" standalone="no"?><!DOCTYPE svg PUBLIC "-//W3C//DTD SVG 1.1//EN" "http://www.w3.org/Graphics/SVG/1.1/DTD/svg11.dtd"><svg width="100%" height="100%" viewBox="0 0 540 540" version="1.1" xmlns="http://www.w3.org/2000/svg" xmlns:xlink="http://www.w3.org/1999/xlink" xml:space="preserve" xmlns:serif="http://www.serif.com/" style="fill-rule:evenodd;clip-rule:evenodd;stroke-linejoin:round;stroke-miterlimit:2;"><path d="M55.625,341.1l-81.575,248.4l109.025,-109.425c-7.5,-18.925 -5.65,-51.25 9.675,-66.55c20.525,-20.55 54.325,-20.075 74.85,0.475c20.525,20.55 21.65,54.95 1.125,75.5c-15.625,15.625 -49.95,16.525 -69.1,8.425l-108.075,108.375l242.525,-85.2l88.325,-159.1l-107.6,-106.15l-159.175,85.25Zm408.9,-367.375c0,0 -150.275,150.25 -173.45,173.45c-23.225,23.2 -35.35,110.475 -35.35,110.475l67.375,67.4c0,0 85.075,-12.15 109.375,-36.475c24.3,-24.325 173.45,-173.45 173.45,-173.45l-141.4,-141.4Z" style="fill:none;fill-rule:nonzero;"/><circle cx="270" cy="270" r="270" style="fill:#fff;"/><path d="M270,0c149.017,0 270,120.983 270,270c0,149.017 -120.983,270 -270,270c-149.017,0 -270,-120.983 -270,-270c0,-149.017 120.983,-270 270,-270Zm0,11c142.946,0 259,116.054 259,259c0,142.946 -116.054,259 -259,259c-142.946,0 -259,-116.054 -259,-259c0,-142.946 116.054,-259 259,-259Z" style="fill:#fbd446;"/><path d="M104.602,311.85l-57.571,179.176l76.943,-78.931c-5.293,-13.651 -3.987,-36.967 6.828,-48.003c14.485,-14.823 38.339,-14.481 52.825,0.342c14.485,14.823 15.279,39.637 0.794,54.46c-11.028,11.27 -35.252,11.92 -48.767,6.077l-76.272,78.173l171.158,-61.457l62.335,-114.761l-75.938,-76.568l-112.335,61.492Zm288.576,-264.994c-0,0 -106.055,108.378 -122.411,125.113c-16.39,16.734 -24.947,79.687 -24.947,79.687l47.549,48.617c-0,0 60.04,-8.764 77.19,-26.31c17.149,-17.546 122.41,-125.112 122.41,-125.112l-99.791,-101.995Z" style="fill:#a1c181;fill-opacity:0.45;fill-rule:nonzero;"/><g transform="matrix(0.5,0,0,0.5,-260,-10)"><text x="633.048px" y="478.391px" style="font-family:'Inder-Regular', 'Inder', sans-serif;font-size:218px;">Chartley</text><text x="669.292px" y="696.391px" style="font-family:'Inder-Regular', 'Inder', sans-serif;font-size:218px;">Designs</text></g></svg>